<svg xmlns="http://www.w3.org/2000/svg" viewBox="0 0 256 256">
  <rect width="256" height="256" fill="#1e40af"/>
  <path d="M128 60 L200 110 L200 200 L56 200 L56 110 Z" fill="#22c55e"/>
  <rect x="56" y="110" width="144" height="20" fill="#1e40af"/>
  <circle cx="128" cy="140" r="35" fill="#1e40af"/>
  <path d="M120 125 L120 115 Q120 108 127 108 Q132 108 132 112 L142 112 Q142 102 132 98 Q128 96 124 96 L124 90 L116 90 L116 96 Q106 98 106 110 Q106 118 114 122 L128 128 Q132 130 132 134 Q132 138 127 138 Q120 138 120 132 L110 132 Q110 144 120 148 L120 158 L128 158 L128 148 Q138 146 138 134 Q138 126 130 122 L116 116 Q112 114 112 110 Q112 106 116 106 Q120 106 120 110 Z" fill="#22c55e"/>
</svg>