<svg xmlns="http://www.w3.org/2000/svg" viewBox="0 0 420 80" fill="none">
  <defs>
    <linearGradient id="wgold" x1="0%" y1="0%" x2="100%" y2="100%">
      <stop offset="0%" stop-color="#F59E0B"/>
      <stop offset="100%" stop-color="#EAB308"/>
    </linearGradient>
    <linearGradient id="wgoldLight" x1="0%" y1="0%" x2="100%" y2="100%">
      <stop offset="0%" stop-color="#FCD34D"/>
      <stop offset="100%" stop-color="#F59E0B"/>
    </linearGradient>
    <linearGradient id="wgreen" x1="0%" y1="0%" x2="100%" y2="100%">
      <stop offset="0%" stop-color="#34D399"/>
      <stop offset="100%" stop-color="#10B981"/>
    </linearGradient>
  </defs>
  
  <!-- Icon box -->
  <rect width="64" height="64" rx="14" y="8" fill="#0F172A"/>
  
  <!-- L letter -->
  <path d="M 14 20 L 14 50 L 30 50 L 30 46 L 19 46 L 19 20 Z" fill="url(#wgold)"/>
  
  <!-- F letter -->
  <path d="M 34 20 L 34 50 L 39 50 L 39 37 L 50 37 L 50 33 L 39 33 L 39 24 L 52 24 L 52 20 Z" fill="url(#wgold)"/>
  
  <!-- Flow wave -->
  <path d="M 10 56 Q 22 51, 32 56 Q 42 61, 54 56" stroke="url(#wgreen)" stroke-width="2" stroke-linecap="round" fill="none"/>
  <path d="M 10 60 Q 22 55, 32 60 Q 42 65, 54 60" stroke="url(#wgoldLight)" stroke-width="1.2" stroke-linecap="round" fill="none" opacity="0.5"/>

  <!-- Wordmark "LedgerFlow" -->
  <text x="76" y="52" font-family="system-ui, -apple-system, 'Segoe UI', Roboto, sans-serif" font-size="36" font-weight="700">
    <tspan fill="#0F172A">Ledger</tspan><tspan fill="#F59E0B">Flow</tspan>
  </text>
</svg>
